<?xml version="1.0" standalone="no"?><!DOCTYPE svg PUBLIC "-//W3C//DTD SVG 1.1//EN" "http://www.w3.org/Graphics/SVG/1.1/DTD/svg11.dtd"><svg t="1773589203293" class="icon" viewBox="0 0 1024 1024" version="1.1" xmlns="http://www.w3.org/2000/svg" p-id="912" width="1024" height="1024" xmlns:xlink="http://www.w3.org/1999/xlink"><path d="M479.715617 75.014997C466.140564 82.581452 441.660956 96.156416 425.192886 105.280639 408.724816 114.40484 388.696082 125.754456 380.684588 130.427827 372.673094 134.878657 339.291871 154.017225 306.13319 172.71071 221.789966 220.55713 144.790611 266.84576 137.669261 274.41217 134.331161 277.750293 130.548 283.536371 128.990165 287.319577 124.761877 297.556485 123.871711 417.95143 126.76475 546.58041 129.435226 663.859775 132.328243 718.159898 136.334034 731.289845 139.227073 741.081671 147.238545 749.7607 160.368515 757.3272 165.932007 760.44278 179.507083 768.899357 190.411616 775.798143 261.847433 821.196607 285.21429 835.439262 344.410325 871.268441 436.987585 926.903813 495.961079 960.285037 504.640197 961.842827 516.212354 964.068242 525.114014 961.397744 545.587831 949.825587 555.824739 943.816967 584.309983 927.793979 608.789613 913.773866 716.722235 852.797498 871.388569 759.107531 883.850893 747.535374 898.316089 734.182885 899.87388 709.258238 898.538631 501.404488 897.425923 328.044669 896.313216 302.007315 888.969347 285.761786 884.741059 276.192502 879.177521 272.409297 831.331101 245.92686 813.082699 235.912493 771.022358 211.432929 737.863676 191.626737 642.393378 134.211033 511.984066 61.439966 504.640197 61.439966 504.417655 61.439966 493.06804 67.671128 479.715617 75.014997ZM536.908713 110.176552C550.03866 117.297924 566.061648 126.199539 572.515351 129.982745 631.488845 162.473802 662.867239 180.722204 727.84931 219.444423 769.242026 244.369069 816.643363 271.741672 848.244255 289.099909 860.706578 295.998695 863.154534 298.446651 864.489783 304.455271 868.718071 325.819254 870.720945 393.694319 870.720945 528.777091 870.943486 693.012709 869.608237 719.495147 860.706578 728.17422 852.472543 736.185758 725.623895 813.407655 642.393378 861.254074 555.824739 910.880826 514.654653 933.8026 512.206608 933.8026 505.530363 933.8026 343.075077 837.887218 253.83594 781.36168 222.680131 761.555443 190.411616 741.526754 182.177581 736.630886 173.943546 731.95747 166.154638 725.503767 164.819345 722.833269 161.481222 715.266769 158.588138 662.747067 155.917685 562.158314 153.469729 462.459817 153.247187 316.24997 155.47258 302.897481 157.030392 293.995821 157.475431 293.77328 201.538646 267.290843 326.607006 192.07182 501.969699 94.376106 508.645944 95.933897 511.0939 96.37898 523.778765 102.832683 536.908713 110.176552Z" fill="#000000" p-id="913"></path><path d="M263.850307 261.504764C237.812953 269.293716 204.876812 285.761786 193.082069 296.888861 178.839458 310.24135 173.721004 328.044669 173.721004 363.428766 173.721004 378.561587 174.61117 390.801369 175.723877 390.801369 176.836585 390.801369 178.839458 384.347665 180.397249 376.558713 183.957957 357.197604 195.084987 335.61108 204.654293 329.157376 208.882537 326.264337 218.896926 322.036049 227.130961 319.588092 235.364996 317.140136 244.044114 312.911848 246.937154 309.796267L251.833066 304.455271 238.480577 302.897481C231.136708 302.007315 223.792839 302.229856 222.235048 303.120022 220.677258 304.010188 221.344883 302.452398 223.792839 299.7819 228.688752 294.218363 266.965888 268.626092 279.205669 262.840013 283.656499 260.614598 287.217163 258.611725 287.217163 258.166642 287.217163 256.163768 276.535172 257.721559 263.850307 261.504764Z" fill="#000000" p-id="914"></path><path d="M525.781638 300.672066C520.885726 306.903228 517.325062 322.036049 508.645944 372.99805 505.530363 391.914076 499.966826 423.069884 496.406162 441.985911 485.946756 496.286034 476.377428 550.363616 472.816764 573.285389 471.036432 584.857546 465.027857 616.903521 459.686816 644.276124 454.123279 671.648682 449.672449 698.353705 449.672449 703.472159 449.672449 716.602107 456.793777 722.833269 473.039306 724.168518 483.943839 725.058684 486.169253 724.391059 491.065122 719.94023 494.180747 717.04719 497.7415 712.818991 498.854207 710.593576 500.856992 707.25532 510.426276 660.966646 525.559097 582.187048 528.007053 569.279731 531.122723 554.369362 532.0128 548.805825 533.125507 543.242288 538.02142 517.204934 542.917333 490.945038 547.813246 464.685232 554.934618 427.075631 558.717779 407.49198 568.954776 353.859482 569.844853 348.518486 569.844853 334.053289 569.844853 325.15163 568.509515 318.030302 565.61652 312.911848 556.714905 295.998695 534.683298 289.32245 525.781638 300.672066Z" fill="#000000" p-id="915"></path><path d="M357.762815 402.373526C354.647234 405.266565 342.407452 418.396513 330.390212 431.971611 318.372971 445.324033 300.792194 464.685232 291.445451 474.476968 281.876167 484.491424 272.529425 496.063492 270.526551 500.069239 265.630639 509.415982 267.410971 524.548803 274.75484 535.453336 280.76346 544.354995 339.291871 606.22144 352.866902 618.238769 370.225138 633.371591 385.357959 633.816674 394.037077 619.574018 403.828903 603.551031 400.268239 597.097328 356.650107 552.811572 338.624247 534.56317 323.713967 518.540094 323.268884 516.982392 323.046343 515.424602 337.956622 498.288907 356.650107 478.927753 375.343592 459.566688 392.479287 440.650662 394.927243 437.089998 408.947357 415.058435 376.678841 385.01529 357.762815 402.373526Z" fill="#000000" p-id="916"></path><path d="M638.387631 406.60177C633.046636 409.717395 623.25481 426.853179 623.25481 433.084251 623.25481 436.867457 633.71426 448.884786 661.086863 476.479842 682.005763 497.398741 698.918916 514.979519 698.918916 515.869685 698.918916 517.204934 664.647527 551.03124 643.728627 570.169808 627.483098 585.080088 617.691206 599.990367 619.694146 607.334148 621.696931 616.013355 635.049509 626.917977 645.063876 628.253136L654.188077 629.365844 687.124173 597.542411C747.878043 538.568917 759.005118 525.884052 759.005118 517.204934 759.005118 508.080733 750.326 497.398741 713.606654 460.011771 659.306531 405.044024 651.072496 399.035404 638.387631 406.60177Z" fill="#000000" p-id="917"></path><path d="M840.232761 624.247301C838.007346 639.825294 829.55077 650.284744 803.068332 668.978229 792.386341 676.322098 790.606009 681.440552 799.73021 678.10243 807.964245 674.986938 823.542149 673.206517 823.542149 675.431932 823.542149 679.437679 813.972865 689.229504 802.62325 696.795915 796.169546 701.024248 789.048219 706.58774 786.822804 709.035697 782.817057 713.486526 782.817057 713.486526 797.059712 712.151277L811.302368 710.593576 799.73021 718.382439C788.603136 726.171391 749.658375 757.3272 735.860803 769.789523 729.184558 775.798143 729.184558 776.020685 734.525554 774.462894 741.869423 772.460021 776.363354 756.659575 795.724463 746.200214 839.787678 722.610727 850.914752 704.807408 850.914752 656.738447 850.914752 623.802307 843.348342 601.103075 840.232761 624.247301Z" fill="#000000" p-id="918"></path></svg>